<svg width="21" height="20" viewBox="0 0 21 20" fill="none" xmlns="http://www.w3.org/2000/svg">
<path fill-rule="evenodd" clip-rule="evenodd" d="M13.5837 4.99967C14.2006 4.99967 14.7392 4.66451 15.0273 4.16634H16.917C17.3772 4.16634 17.7503 4.53944 17.7503 4.99967V6.77136C16.3127 7.14139 15.2503 8.44651 15.2503 9.99967C15.2503 11.5528 16.3127 12.8579 17.7503 13.228V14.9997C17.7503 15.4599 17.3772 15.833 16.917 15.833H15.0273C14.7392 15.3348 14.2006 14.9997 13.5837 14.9997C12.9667 14.9997 12.4282 15.3348 12.14 15.833H3.58366C3.12343 15.833 2.75033 15.4599 2.75033 14.9997V13.228C4.18802 12.8579 5.25033 11.5528 5.25033 9.99967C5.25033 8.44651 4.18802 7.14139 2.75033 6.77136V4.99967C2.75033 4.53944 3.12343 4.16634 3.58366 4.16634H12.14C12.4282 4.66451 12.9667 4.99967 13.5837 4.99967ZM16.0837 9.99967C16.0837 8.61892 17.2029 7.49967 18.5837 7.49967V4.99967C18.5837 4.0792 17.8375 3.33301 16.917 3.33301H14.417C14.417 3.79324 14.0439 4.16634 13.5837 4.16634C13.1234 4.16634 12.7503 3.79324 12.7503 3.33301H3.58366C2.66318 3.33301 1.91699 4.0792 1.91699 4.99967V7.49967C3.2977 7.49967 4.41699 8.61892 4.41699 9.99967C4.41699 11.3804 3.2977 12.4997 1.91699 12.4997V14.9997C1.91699 15.9202 2.66318 16.6663 3.58366 16.6663H12.7503C12.7503 16.2061 13.1234 15.833 13.5837 15.833C14.0439 15.833 14.417 16.2061 14.417 16.6663H16.917C17.8375 16.6663 18.5837 15.9202 18.5837 14.9997V12.4997C17.2029 12.4997 16.0837 11.3804 16.0837 9.99967ZM13.5837 7.49967C14.0439 7.49967 14.417 7.12658 14.417 6.66634C14.417 6.20611 14.0439 5.83301 13.5837 5.83301C13.1234 5.83301 12.7503 6.20611 12.7503 6.66634C12.7503 7.12658 13.1234 7.49967 13.5837 7.49967ZM13.5837 10.833C14.0439 10.833 14.417 10.4599 14.417 9.99967C14.417 9.53942 14.0439 9.16634 13.5837 9.16634C13.1234 9.16634 12.7503 9.53942 12.7503 9.99967C12.7503 10.4599 13.1234 10.833 13.5837 10.833ZM14.417 13.333C14.417 13.7933 14.0439 14.1663 13.5837 14.1663C13.1234 14.1663 12.7503 13.7933 12.7503 13.333C12.7503 12.8728 13.1234 12.4997 13.5837 12.4997C14.0439 12.4997 14.417 12.8728 14.417 13.333Z" fill="#707070"/>
</svg>
